<?xml version="1.0" encoding="UTF-8" standalone="no"?>
<svg xmlns="http://www.w3.org/2000/svg" width="2471" height="2500" viewBox="-28.364 -29.444 42.324 42.822"><path fill="#F60" d="M-17.392 7.875c0 3.025-2.46 5.485-5.486 5.485s-5.486-2.46-5.486-5.485c0-3.026 2.46-5.486 5.486-5.486s5.486 2.461 5.486 5.486zm31.351 5.486C14.042.744 8.208-11.757-1.567-19.736c-7.447-6.217-17.089-9.741-26.797-9.708v9.792C-16.877-19.785-5.556-13.535.344-3.66a32.782 32.782 0 0 1 4.788 17.004h8.827v.017zm-14.96 0C-.952 5.249-4.808-2.73-11.108-7.817c-4.821-3.956-11.021-6.184-17.255-6.15v8.245c6.782-.083 13.432 3.807 16.673 9.774a19.296 19.296 0 0 1 2.411 9.326h8.278v-.017z"/>
	<metadata>
		<rdf:RDF xmlns:rdf="http://www.w3.org/1999/02/22-rdf-syntax-ns#" xmlns:rdfs="http://www.w3.org/2000/01/rdf-schema#" xmlns:dc="http://purl.org/dc/elements/1.1/">
			<rdf:Description about="https://iconscout.com/legal#licenses" dc:title="rss-company-brand-logo" dc:description="rss-company-brand-logo" dc:publisher="Iconscout" dc:date="2017-07-12" dc:format="image/svg+xml" dc:language="en">
				<dc:creator>
					<rdf:Bag>
						<rdf:li>Icon Mafia</rdf:li>
					</rdf:Bag>
				</dc:creator>
			</rdf:Description>
		</rdf:RDF>
    </metadata></svg>
